<svg xmlns="http://www.w3.org/2000/svg" xmlns:xlink="http://www.w3.org/1999/xlink" preserveAspectRatio="xMidYMid" width="325.75" height="41.125" viewBox="0 0 651.5 82.25">
  <defs>
    <style>
      .cls-1 {
        fill: #fff;
        fill-rule: evenodd;
      }
    </style>
  </defs>
  <path d="M651.498,64.775 L651.498,70.074 L610.727,70.074 L610.727,9.387 L650.729,9.387 L650.729,14.687 L616.625,14.687 L616.625,36.568 L646.370,36.568 L646.370,41.611 L616.625,41.611 L616.625,64.775 L651.498,64.775 ZM571.588,61.270 C565.947,67.424 559.451,70.502 552.185,70.502 C535.860,70.502 523.808,55.031 523.808,39.645 C523.808,23.405 535.603,8.960 551.843,8.960 C563.810,8.960 571.075,14.430 575.007,22.208 L570.391,25.285 C566.460,17.764 559.793,14.345 551.758,14.345 C538.253,14.345 529.791,26.824 529.791,39.731 C529.791,53.407 539.706,65.117 552.613,65.117 C559.536,65.117 565.776,61.954 571.588,55.031 L571.588,44.859 L558.169,44.859 L558.169,40.244 L576.717,40.244 L576.717,70.074 L571.588,70.074 L571.588,61.270 ZM483.215,51.099 L455.949,51.099 L448.171,70.074 L441.846,70.074 L467.232,9.387 L472.104,9.387 L497.490,70.074 L491.079,70.074 L483.215,51.099 ZM469.710,16.396 L457.231,46.398 L481.848,46.398 L469.710,16.396 ZM395.952,70.074 L389.969,70.074 L389.969,14.687 L368.344,14.687 L368.344,9.387 L417.577,9.387 L417.577,14.687 L395.952,14.687 L395.952,70.074 ZM322.109,70.074 L316.125,70.074 L316.125,14.687 L294.500,14.687 L294.500,9.387 L343.734,9.387 L343.734,14.687 L322.109,14.687 L322.109,70.074 ZM239.206,70.502 C222.282,70.502 210.743,55.287 210.743,39.731 C210.743,23.576 223.051,8.960 239.291,8.960 C256.215,8.960 267.669,24.602 267.669,39.816 C267.669,55.971 255.446,70.502 239.206,70.502 ZM239.206,14.430 C225.444,14.430 216.726,27.166 216.726,39.731 C216.726,52.894 225.872,65.117 239.206,65.117 C252.967,65.117 261.686,52.210 261.686,39.731 C261.686,26.568 252.369,14.430 239.206,14.430 ZM159.123,65.202 C165.961,65.202 173.996,61.783 177.842,53.919 L182.800,56.484 C178.868,65.544 168.098,70.587 158.781,70.587 C142.114,70.587 130.404,54.689 130.404,39.303 C130.404,24.687 140.917,9.045 159.209,9.045 C169.979,9.045 177.842,14.516 181.603,22.294 L176.817,25.200 C172.970,17.165 165.448,14.430 158.867,14.430 C144.336,14.430 136.387,27.422 136.387,39.645 C136.387,53.065 146.217,65.202 159.123,65.202 ZM77.000,33.752 L77.000,82.250 L71.000,82.250 L71.000,28.320 L48.317,7.786 L25.473,28.250 L26.000,28.250 L26.000,82.250 L20.000,82.250 L20.000,33.153 L4.002,47.485 L-0.002,43.016 L47.998,0.015 L48.614,0.703 L49.002,0.266 L97.002,43.718 L92.998,48.234 L77.000,33.752 Z" class="cls-1"/>
</svg>
